<svg xmlns="http://www.w3.org/2000/svg" style="display: none;">
  <symbol id="icon-telegram" viewBox="0 0 24 24">
    <path d="M12 0c-6.627 0-12 5.373-12 12s5.373 12 12 12 12-5.373 12-12-5.373-12-12-12zm5.894 8.221l-1.97 9.28c-.145.658-.537.818-1.084.508l-3-2.21-1.447 1.394c-.14.141-.259.259-.374.261l.213-3.053 5.56-5.022c.24-.213-.054-.334-.373-.121l-6.869 4.326-2.96-.924c-.64-.203-.658-.64.136-.954l11.566-4.458c.538-.196 1.006.128.832.941z"/>
  </symbol>
  <symbol id="icon-linkedin" viewBox="0 0 24 24">
    <path d="M12 0c-6.627 0-12 5.373-12 12s5.373 12 12 12 12-5.373 12-12-5.373-12-12-12zm-2 16h-2v-6h2v6zm-1-6.891c-.607 0-1.1-.496-1.1-1.109 0-.612.492-1.109 1.1-1.109s1.1.497 1.1 1.109c0 .613-.493 1.109-1.1 1.109zm8 6.891h-1.998v-2.861c0-1.881-2.002-1.722-2.002 0v2.861h-2v-6h2v1.093c.872-1.616 4-1.736 4 1.548v3.359z"/>
  </symbol>
  <symbol id="icon-github" viewBox="0 0 24 24">
    <path d="M12 0c-6.626 0-12 5.373-12 12 0 5.302 3.438 9.8 8.207 11.387.599.111.793-.261.793-.577v-2.234c-3.338.726-4.033-1.416-4.033-1.416-.546-1.387-1.333-1.756-1.333-1.756-1.089-.745.083-.729.083-.729 1.205.084 1.839 1.237 1.839 1.237 1.07 1.834 2.807 1.304 3.492.997.107-.775.418-1.305.762-1.604-2.665-.305-5.467-1.334-5.467-5.931 0-1.311.469-2.381 1.236-3.221-.124-.303-.535-1.524.117-3.176 0 0 1.008-.322 3.301 1.23.957-.266 1.983-.399 3.003-.404 1.02.005 2.047.138 3.006.404 2.291-1.552 3.297-1.23 3.297-1.23.653 1.653.242 2.874.118 3.176.77.84 1.235 1.911 1.235 3.221 0 4.609-2.807 5.624-5.479 5.921.43.372.823 1.102.823 2.222v3.293c0 .319.192.694.801.576 4.765-1.589 8.199-6.086 8.199-11.386 0-6.627-5.373-12-12-12z"/>
  </symbol>
  <symbol id="icon-slack" viewBox="0 0 24 24">
    <path d="M6.194 14.644c0 1.16-.945 2.105-2.106 2.105s-2.106-.945-2.106-2.105.945-2.106 2.106-2.106h2.106v2.106zm1.066 0c0-1.16.945-2.106 2.106-2.106s2.106.945 2.106 2.106v5.277c0 1.16-.945 2.105-2.106 2.105s-2.106-.945-2.106-2.105v-5.277zm2.106-8.134c-1.16 0-2.106-.945-2.106-2.106s.945-2.106 2.106-2.106 2.106.945 2.106 2.106v2.106h-2.106zm0 1.066c1.16 0 2.106.945 2.106 2.106s-.945 2.106-2.106 2.106h-5.277c-1.16 0-2.106-.945-2.106-2.106s.945-2.106 2.106-2.106h5.277zm8.134 2.106c0-1.16.945-2.106 2.106-2.106s2.106.945 2.106 2.106-.945 2.106-2.106 2.106h-2.106v-2.106zm-1.066 0c0 1.16-.945 2.106-2.106 2.106s-2.106-.945-2.106-2.106v-5.277c0-1.16.945-2.106 2.106-2.106s2.106.945 2.106 2.106v5.277zm-2.106 8.134c1.16 0 2.106.945 2.106 2.106s-.945 2.106-2.106 2.106-2.106-.945-2.106-2.106v-2.106h2.106zm0-1.066c-1.16 0-2.106-.945-2.106-2.106s.945-2.106 2.106-2.106h5.277c1.16 0 2.106.945 2.106 2.106s-.945 2.106-2.106 2.106h-5.277z"/>
  </symbol>
  <symbol id="icon-codewars" viewBox="0 0 24 24">
    <path d="M12 0c-6.627 0-12 5.373-12 12s5.373 12 12 12 12-5.373 12-12-5.373-12-12-12zm9.885 11.441c-2.575-.422-4.943-.445-7.103-.073-.244-.563-.5-1.126-.767-1.664 2.05-1.832 3.529-4.064 3.529-6.668 0-.776-.199-1.509-.548-2.154.684.213 1.32.513 1.898.892-.119.16-.23.331-.327.509.387.408.72.877.971 1.401 0 0 .437-.828.728-1.294.363.474.642.988.833 1.529.144.421.202.844.217 1.25h1.474c.061-.647-.067-1.368-.274-2.042-.069.169-.15.336-.237.5.511.941.833 2.008.833 3.109 0 2.418-1.414 4.474-3.448 5.451zm-6.307 5.694c-.083.349-.163.7-.242 1.051-1.189.542-2.543.908-4.007.989-1.532.085-3.103-.078-4.668-.506-.385-.14-.764-.291-1.136-.452.069-.27.137-.543.201-.821 1.634.535 3.283.775 4.941.708 1.637-.067 3.139-.387 4.5-.969zm-.802-3.119c-.151.849-.301 1.699-.451 2.548-.987.269-2.077.413-3.262.428-.835.012-1.696-.042-2.576-.154-.784-.102-1.536-.287-2.256-.555.046-.327.101-.658.163-.995 1.003.392 2.005.646 3.009.762 1.175.137 2.312.119 3.412-.035.955-.135 1.908-.327 2.858-.576.165-.049.33-.1.493-.152l.01.029zm5.307-3.548c-.085.327-.189.656-.294.987-2.108.895-4.464 1.256-7.066 1.099-.535-.032-1.069-.088-1.601-.166-.984-.146-1.936-.366-2.856-.66-.085-.358-.189-.716-.293-1.076.836.435 1.744.79 2.721 1.065 2.132.604 4.267.674 6.405.228 1.916-.4 3.709-1.086 5.379-2.034 0 0 .009.032.022.064l-.016.015.002-.001zm-10.864-8.93c0-.776.199-1.509.549-2.154-.685.213-1.322.513-1.9.892.119.16.23.331.327.509-.387.408-.72.877-.971 1.401 0 0-.437-.828-.728-1.294-.363.474-.642.988-.833 1.529-.144.421-.202.844-.217 1.25h-1.474c-.061-.647.067-1.368.274-2.042.069.169.15.336.237.5-.511.941-.833 2.008-2.833 3.574 0-1.301.615-2.471 1.588-3.305z"/>
  </symbol>
  <symbol id="icon-leetcode" viewBox="0 0 24 24">
    <path d="M13.483 0c1.084 0 2.055.447 2.708 1.15l3.584 3.578c.622.622.776 1.482.624 2.28-.11.565-.392 1.056-.857 1.521l-2.064 2.065c-.465.465-.956.747-1.52.857-.798.152-1.658-.002-2.28-.624l-3.584-3.578C5.962 6.817 5.245 7.537 5.245 8.5v6.967c0 .819-.662 1.483-1.483 1.483-.82 0-1.482-.664-1.482-1.483V8.5c0-2.37 1.92-4.288 4.288-4.288.205 0 .412.014.617.043.204-.03.41-.043.614-.043h4.67zm-2.788 4.287c.819 0 1.482.663 1.482 1.482 0 .819-.663 1.482-1.482 1.482-.82 0-1.483-.663-1.483-1.482 0-.819.663-1.482 1.483-1.482zm3.596 5.523c-1.262 0-2.294 1.031-2.294 2.293v7.767c0 1.262 1.032 2.294 2.294 2.294h4.671c1.261 0 2.293-1.032 2.293-2.294v-7.767c0-1.262-1.032-2.293-2.293-2.293h-4.671z"/>
  </symbol>
  

  <!-- Логотип -->
  <symbol id="logo" viewBox="0 0 150 40" fill="none">
    <rect x="5" y="5" width="35" height="35" rx="8" class="logo-bg"/>
    <text x="8" y="29" font-family="Inter, sans-serif" font-weight="700" font-size="18" class="logo-initials">AH</text>
    <text x="45" y="20" font-family="Inter, sans-serif" font-weight="700" font-size="16" class="logo-name">Alexander</text>
    <text x="45" y="38" font-family="Inter, sans-serif" font-weight="300" font-size="14" class="logo-title">Full-Stack Dev</text>
  </symbol>

  <!-- Иконка "Наверх" -->
  <symbol id="icon-arrow-up" viewBox="0 0 24 24" fill="none">
    <path d="M12 20L12 4M12 4L5 11M12 4L19 11" stroke="currentColor" stroke-width="2" stroke-linecap="round" stroke-linejoin="round"/>
  </symbol>

  <!-- Иконка приватности (концентрические круги) -->
<!-- Максимально выразительный отпечаток -->
<symbol id="icon-privacy" viewBox="0 0 100 100" fill="none">
  <!-- Очень толстые основные линии -->
  <path d="M10,20 Q50,0 90,20 T98,40" stroke="currentColor" stroke-width="5" fill="none" stroke-linecap="round"/>
  <path d="M5,30 Q50,10 95,30 T99,50" stroke="currentColor" stroke-width="4.5" fill="none" stroke-linecap="round"/>
  <path d="M8,40 Q50,20 92,40 T97,60" stroke="currentColor" stroke-width="4" fill="none" stroke-linecap="round"/>
  
  <!-- Выразительные центральные волны -->
  <path d="M15,50 Q35,45 50,50 T85,55" stroke="currentColor" stroke-width="4" fill="none" stroke-linecap="round"/>
  <path d="M12,60 Q35,55 50,60 T88,65" stroke="currentColor" stroke-width="3.5" fill="none" stroke-linecap="round"/>
  <path d="M15,70 Q35,65 50,70 T85,75" stroke="currentColor" stroke-width="3" fill="none" stroke-linecap="round"/>
  
  <!-- Детализация с прерывистыми линиями -->
  <path d="M25,55 Q40,52 55,55" stroke="currentColor" stroke-width="2.5" fill="none" stroke-linecap="round"/>
  <path d="M22,65 Q40,62 55,65" stroke="currentColor" stroke-width="2.2" fill="none" stroke-linecap="round" stroke-dasharray="15,5"/>
  <path d="M25,75 Q40,72 55,75" stroke="currentColor" stroke-width="2" fill="none" stroke-linecap="round" stroke-dasharray="12,8"/>
  
  <!-- Крупные акцентные точки -->
  <g fill="currentColor">
    <circle cx="25" cy="35" r="2.5"/>
    <circle cx="50" cy="30" r="2"/>
    <circle cx="75" cy="35" r="2.5"/>
    <circle cx="30" cy="58" r="2"/>
    <circle cx="70" cy="56" r="2"/>
    <circle cx="50" cy="62" r="1.8"/>
    <circle cx="35" cy="72" r="1.5"/>
    <circle cx="65" cy="70" r="1.5"/>
  </g>
</symbol>

</svg>